<svg xmlns="http://www.w3.org/2000/svg" viewBox="0 0 120 120">
  <defs>
    <linearGradient id="r-i-lit" gradientUnits="userSpaceOnUse" x1="0" y1="15" x2="0" y2="90"><stop offset="0" stop-color="#F4F7FA"/><stop offset="1" stop-color="#B3BDCA"/></linearGradient>
    <linearGradient id="r-i-steel" gradientUnits="userSpaceOnUse" x1="0" y1="15" x2="0" y2="90"><stop offset="0" stop-color="#C9D1DC"/><stop offset="1" stop-color="#8391A3"/></linearGradient>
    <linearGradient id="r-i-bit-l" gradientUnits="userSpaceOnUse" x1="0" y1="51" x2="0" y2="101.43"><stop offset="0" stop-color="#F4F7FA"/><stop offset="1" stop-color="#B3BDCA"/></linearGradient>
    <linearGradient id="r-i-bit-r" gradientUnits="userSpaceOnUse" x1="0" y1="51" x2="0" y2="101.43"><stop offset="0" stop-color="#C9D1DC"/><stop offset="1" stop-color="#8391A3"/></linearGradient>
    <linearGradient id="r-i-gold" gradientUnits="userSpaceOnUse" x1="0" y1="86.43" x2="0" y2="101.43"><stop offset="0" stop-color="#FFE8A6"/><stop offset="1" stop-color="#F5C451"/></linearGradient>
    <clipPath id="r-i-bit"><path d="M37.5 51L60 78L82.5 51L82.5 74.43L60 101.43L37.5 74.43Z"/></clipPath>
  </defs>
  <rect fill="#0B0E14" width="120" height="120" rx="22.5"/>
  <path fill="#8C97A8" d="M7.5 97.5L51.84 97.5L58.09 105L7.5 105ZM112.5 105L61.91 105L68.16 97.5L112.5 97.5Z"/>
  <path fill="url(#r-i-lit)" d="M7.5 15L30 42L30 90L7.5 90Z"/>
  <path fill="url(#r-i-steel)" d="M112.5 90L90 90L90 42L112.5 15Z"/>
  <path fill="url(#r-i-bit-l)" d="M37.5 51L60 78L60 101.43L37.5 74.43Z"/>
  <path fill="url(#r-i-bit-r)" d="M60 78L82.5 51L82.5 74.43L60 101.43Z"/>
  <rect fill="url(#r-i-gold)" clip-path="url(#r-i-bit)" x="0" y="86.43" width="120" height="15"/>
</svg>
